<svg xmlns="http://www.w3.org/2000/svg" xmlns:xlink="http://www.w3.org/1999/xlink" width="390" height="236" viewBox="0 0 390 236">
  <defs>
    <clipPath id="clip-path">
      <rect id="Rectangle_5" data-name="Rectangle 5" width="390" height="236" transform="translate(0 564)" fill="#fff" stroke="#707070" stroke-width="1"/>
    </clipPath>
  </defs>
  <g id="Mask_Group_1" data-name="Mask Group 1" transform="translate(0 -564)" clip-path="url(#clip-path)">
    <path id="Rectangle_1" data-name="Rectangle 1" d="M10,0H1270a10,10,0,0,1,10,10V236a0,0,0,0,1,0,0H0a0,0,0,0,1,0,0V10A10,10,0,0,1,10,0Z" transform="translate(-445 564)" fill="#e6f4f9" opacity="0.613"/>
    <path id="Intersection_3" data-name="Intersection 3" d="M1053,107q-1.041-.964-2.005-2-.964,1.04-2,2H823.031l-.03-.043-.03.043h-64.94q-.27-.389-.531-.784-.261.4-.531.784H692.03a39.384,39.384,0,0,1-4.53-8.639A39.388,39.388,0,0,1,682.97,107H618.03a39.426,39.426,0,0,1-3.53-6.22,39.433,39.433,0,0,1-3.53,6.22H546.03q-1.091-1.571-2.03-3.25-.938,1.677-2.03,3.25H477.031A39.429,39.429,0,0,1,473,99.626,39.431,39.431,0,0,1,468.97,107H404.03a39.428,39.428,0,0,1-3.53-6.22,39.43,39.43,0,0,1-3.53,6.22H332.03q-.533-.767-1.03-1.561-.5.793-1.03,1.561H231q-1.04-.964-2-2-.964,1.04-2,2H0V35.66C21.954,24.742,52.158,18,85.5,18c42.119,0,79.236,10.763,101.033,27.106A37.539,37.539,0,0,1,229,54a37.506,37.506,0,0,1,50.073-4.452A39.529,39.529,0,0,1,331,63.562a39.514,39.514,0,0,1,69.5,4.659A39.516,39.516,0,0,1,473,69.375a39.514,39.514,0,0,1,71-4.124,39.515,39.515,0,0,1,70.5,2.97,39.516,39.516,0,0,1,73,2.419,39.513,39.513,0,0,1,70-7.855,39.508,39.508,0,0,1,65.5-.741,39.505,39.505,0,0,1,63.5-2.026A39.5,39.5,0,0,1,947,58.232a39.511,39.511,0,0,1,51.411-6.6A37.5,37.5,0,0,1,1051,54a37.539,37.539,0,0,1,42.467-8.9C1115.265,28.763,1152.381,18,1194.5,18c33.342,0,63.546,6.742,85.5,17.66V107Z" transform="translate(-445 693)" fill="#dff5fd"/>
  </g>
</svg>
