<svg id="Group_213" data-name="Group 213" xmlns="http://www.w3.org/2000/svg" xmlns:xlink="http://www.w3.org/1999/xlink" width="16.663" height="19.224" viewBox="0 0 16.663 19.224">
  <defs>
    <clipPath id="clip-path">
      <rect id="Rectangle_22" data-name="Rectangle 22" width="16.663" height="19.224" fill="#315568"/>
    </clipPath>
  </defs>
  <g id="Group_6" data-name="Group 6" clip-path="url(#clip-path)">
    <path id="Path_14" data-name="Path 14" d="M8.32,136.732H.753A.658.658,0,0,1,0,135.988q0-1.521,0-3.043a5.151,5.151,0,0,1,4.421-5.133,5.023,5.023,0,0,1,.738-.049q3.173-.006,6.346,0a5.125,5.125,0,0,1,5.154,5.146c.005,1.028,0,2.055,0,3.083a.655.655,0,0,1-.734.741H8.32" transform="translate(0 -117.508)" fill="#315568"/>
    <path id="Path_15" data-name="Path 15" d="M47.926,4.477a4.486,4.486,0,1,1,4.463,4.492,4.485,4.485,0,0,1-4.463-4.492" transform="translate(-44.08 0.001)" fill="#315568"/>
  </g>
</svg>
