<svg id="Group_216" data-name="Group 216" xmlns="http://www.w3.org/2000/svg" xmlns:xlink="http://www.w3.org/1999/xlink" width="22.921" height="23.028" viewBox="0 0 22.921 23.028">
  <defs>
    <clipPath id="clip-path">
      <rect id="Rectangle_157" data-name="Rectangle 157" width="22.921" height="23.028" fill="#315568"/>
    </clipPath>
  </defs>
  <g id="Group_159" data-name="Group 159" clip-path="url(#clip-path)">
    <path id="Path_222" data-name="Path 222" d="M13.279,22.161a1.5,1.5,0,0,0,1.1-.491c.883-1.123,1.81-2.211,2.733-3.3a1.475,1.475,0,0,0,.383-1.042c-.006-.2.014-.4.027-.6a.575.575,0,0,1,.388-.5c.3-.134.6-.266.9-.4a.714.714,0,0,0,.47-.652c.007-.221-.1-.362-.32-.337a1.044,1.044,0,0,1-1.182-.764c-.168-.406-.406-.781-.6-1.176a1.105,1.105,0,0,0-1.094-.669c-.576.01-1.153.008-1.729,0a.977.977,0,0,0-.676.246,1.339,1.339,0,0,1-1.731.13c-.53-.322-1.054-.653-1.587-.971a.755.755,0,0,1-.4-.7c0-.367-.007-.734,0-1.1a.652.652,0,0,1,.71-.714c.306-.008.613,0,.92,0a.714.714,0,0,1,.623.335c.082.116.172.226.272.357.049-.08.094-.146.131-.216.408-.756.82-1.509,1.218-2.27a.755.755,0,0,1,.753-.455c.223.008.446,0,.7,0,0-.333,0-.645,0-.956a.716.716,0,0,1,.56-.793c-.008-.017-.012-.04-.025-.049-.769-.5-1.536-1.009-2.309-1.506a2.439,2.439,0,0,0-1.411-.364c-.187,0-.374.005-.561,0a.353.353,0,0,1-.376-.336.338.338,0,0,1,.374-.333,4.434,4.434,0,0,1,1.749.185,4,4,0,0,1,.62.308c.794.506,1.585,1.016,2.369,1.539a.63.63,0,0,1-.016,1.126c-.334.122-.3.314-.3.553s.005.449-.005.673a.607.607,0,0,1-.552.6,2.641,2.641,0,0,1-.6.017.426.426,0,0,0-.477.29q-.583,1.136-1.213,2.247a.945.945,0,0,1-.431.389.573.573,0,0,1-.738-.266.762.762,0,0,0-.865-.416,3.147,3.147,0,0,1-.443,0c0,.4-.006.773.006,1.145,0,.056.075.124.132.16q.76.476,1.527.941a.678.678,0,0,0,.923-.06,1.732,1.732,0,0,1,1.239-.419c.561.016,1.123,0,1.684,0a1.666,1.666,0,0,1,1.569.932c.244.454.489.907.708,1.373a.454.454,0,0,0,.492.3.952.952,0,0,1,1.032,1.1,1.3,1.3,0,0,1-.731,1.109c-.29.153-.594.279-.9.408a.23.23,0,0,0-.164.252,5.655,5.655,0,0,1-.019.762,1.889,1.889,0,0,1-.506,1c-.76.906-1.513,1.817-2.268,2.726-.014.017-.023.037-.065.109.253-.106.463-.182.663-.279A10.774,10.774,0,0,0,22.045,13.8c.106-.448.131-.916.209-1.372a.69.69,0,0,1,.164-.369.338.338,0,0,1,.325-.026.42.42,0,0,1,.175.321,13.132,13.132,0,0,1-.29,1.9,11.133,11.133,0,0,1-8.409,8.392A10.971,10.971,0,0,1,3.945,20.168,11.123,11.123,0,0,1,.212,13.739,11.5,11.5,0,0,1,.1,10.034a11.025,11.025,0,0,1,2.7-6.04A11.392,11.392,0,0,1,8.389.463a10.976,10.976,0,0,1,9.026,1.223,11.163,11.163,0,0,1,5.1,6.7,18.528,18.528,0,0,1,.4,2.288.465.465,0,0,1-.165.352.328.328,0,0,1-.323-.017.663.663,0,0,1-.175-.387,11.291,11.291,0,0,0-.487-2.431c-.043-.137-.1-.17-.241-.2-.766-.16-1.539-.3-2.287-.526a1.938,1.938,0,0,1-1.313-2.279,1.707,1.707,0,0,0-.085-1.033,3,3,0,0,1-.225-1.4c.008-.066-.072-.17-.139-.215A10.571,10.571,0,0,0,12.915.808,10.692,10.692,0,0,0,6.192,2.091a.653.653,0,0,0-.072.059,3.145,3.145,0,0,0,1.271.379c.822-.031,1.646-.007,2.47-.01.192,0,.343.057.393.257a.33.33,0,0,1-.347.414c-.277.009-.554,0-.831,0-.636,0-1.273.01-1.909-.006a1.96,1.96,0,0,1-.6-.123c-.343-.124-.673-.285-1.014-.416a.315.315,0,0,0-.259.018c-.479.369-.947.751-1.437,1.143.181.2.336.352.481.518A1.592,1.592,0,0,1,4.6,6.2a1.008,1.008,0,0,0,.013,1.036c.226.419.4.865.588,1.306a.24.24,0,0,0,.268.171c.412-.008.823-.006,1.235,0a.692.692,0,0,1,.763.632c.16.729.331,1.455.478,2.186a.345.345,0,0,0,.259.289c.714.264,1.424.536,2.136.8a2.13,2.13,0,0,1,1.51,1.993c.022.379-.025.761-.027,1.142a.919.919,0,0,0,.681.987c.314.118.631.228.945.347a.768.768,0,0,1,.538.764,5.46,5.46,0,0,1-.555,2.71,4.423,4.423,0,0,0-.155,1.6M6.787,9.383c-.469,0-.925,0-1.38,0a.769.769,0,0,1-.788-.506c-.23-.543-.455-1.09-.727-1.612A1.137,1.137,0,0,1,3.912,6.1,1.544,1.544,0,0,0,4.1,5.535c.056-.551-.346-.849-.683-1.184a10.775,10.775,0,0,0,9.179,17.89.962.962,0,0,0,.009-.154,4.681,4.681,0,0,1,.416-2.354c.03-.068.04-.145.074-.211a3.565,3.565,0,0,0,.21-1.766l-1.009-.373a1.574,1.574,0,0,1-1.14-1.633c0-.351.03-.7.038-1.052a1.511,1.511,0,0,0-1.056-1.436c-.745-.285-1.489-.575-2.24-.844a.8.8,0,0,1-.585-.664c-.017-.1-.041-.2-.064-.307-.151-.683-.3-1.366-.458-2.063M21.435,7.3a10.476,10.476,0,0,0-3.146-4.124,6.7,6.7,0,0,0,.208.814,2.093,2.093,0,0,1,.1,1.253A1.345,1.345,0,0,0,19.659,6.9c.2.043.39.1.587.141.383.085.766.165,1.189.256" transform="translate(0 0)" fill="#315568"/>
  </g>
</svg>
