<svg id="Group_214" data-name="Group 214" xmlns="http://www.w3.org/2000/svg" xmlns:xlink="http://www.w3.org/1999/xlink" width="22.921" height="16.109" viewBox="0 0 22.921 16.109">
  <defs>
    <clipPath id="clip-path">
      <rect id="Rectangle_23" data-name="Rectangle 23" width="22.921" height="16.109" fill="#315568"/>
    </clipPath>
  </defs>
  <g id="Group_8" data-name="Group 8" clip-path="url(#clip-path)">
    <path id="Path_16" data-name="Path 16" d="M12.8.145a6.355,6.355,0,0,1,.9-.138C15.568,0,17.441,0,19.313,0q6.58,0,13.159.005a6.588,6.588,0,0,1,.891.12l.012.081c-.048.051-.095.1-.144.152L23.719,9.893a.783.783,0,0,1-1.2.01L12.991.354C12.944.307,12.9.257,12.8.145" transform="translate(-11.652 0)" fill="#315568"/>
    <path id="Path_17" data-name="Path 17" d="M20.219,101c.576.571,1.19,1.18,1.8,1.787a2.1,2.1,0,0,0,2.443.455,2.756,2.756,0,0,0,.68-.5c.554-.532,1.088-1.084,1.63-1.628.057-.057.116-.111.143-.136l6.956,6.887c-.281.062-.513.116-.746.161a1.187,1.187,0,0,1-.223,0H14.221a2,2,0,0,1-.923-.192L20.219,101" transform="translate(-12.106 -91.93)" fill="#315568"/>
    <path id="Path_18" data-name="Path 18" d="M.166,12.83l6.943,6.883L.158,26.6a3.8,3.8,0,0,1-.151-.76q-.015-6.106,0-12.211a4.169,4.169,0,0,1,.158-.8" transform="translate(0 -11.68)" fill="#315568"/>
    <path id="Path_19" data-name="Path 19" d="M183.323,27.091l-6.942-6.878,6.951-6.879a3.739,3.739,0,0,1,.149.752q.015,6.1,0,12.209a4.151,4.151,0,0,1-.158.8" transform="translate(-160.567 -12.139)" fill="#315568"/>
  </g>
</svg>
