<svg xmlns="http://www.w3.org/2000/svg" width="17.248" height="18" viewBox="0 0 17.248 18">
  <g id="Group_211" data-name="Group 211" transform="translate(-166.378 -253.63)">
    <path id="Path_222" data-name="Path 222" d="M12.744,16.555c-.355-.049-.866-.112-1.373-.194a.666.666,0,0,0-.622.191c-.367.361-.726.734-1.122,1.062a1.532,1.532,0,0,1-2.139-.105c-.283-.272-.586-.527-.841-.822a.932.932,0,0,0-.99-.3,12.1,12.1,0,0,1-1.249.172A1.527,1.527,0,0,1,2.725,15.3c-.1-.463-.173-.93-.246-1.4a.688.688,0,0,0-.394-.558c-.4-.2-.787-.412-1.177-.622a1.573,1.573,0,0,1-.716-2.189c.186-.39.369-.782.571-1.164a.718.718,0,0,0,0-.73C.566,8.262.387,7.875.2,7.491A1.579,1.579,0,0,1,.917,5.274c.391-.21.78-.424,1.177-.623a.678.678,0,0,0,.384-.546c.073-.456.148-.911.241-1.363A1.575,1.575,0,0,1,4.612,1.454c.444.074.89.132,1.335.2a.61.61,0,0,0,.54-.19C6.86,1.1,7.222.718,7.622.386a1.531,1.531,0,0,1,2.139.1c.279.267.578.518.828.81a.955.955,0,0,0,1.02.31c.417-.084.843-.124,1.267-.171a1.539,1.539,0,0,1,1.652,1.279c.084.46.17.919.242,1.38a.689.689,0,0,0,.4.557c.4.2.8.416,1.193.631a1.568,1.568,0,0,1,.705,2.165c-.193.406-.388.811-.593,1.212a.681.681,0,0,0,0,.668c.2.39.389.785.58,1.179a1.576,1.576,0,0,1-.716,2.216c-.391.21-.78.424-1.177.622a.682.682,0,0,0-.384.546c-.084.5-.157,1.005-.278,1.5a1.555,1.555,0,0,1-1.749,1.162M5.263,12.941c.132.007.261-.108.388-.235L12.33,6.024a1.506,1.506,0,0,0,.12-.128.486.486,0,0,0,.062-.543.493.493,0,0,0-.462-.292.609.609,0,0,0-.452.233L4.919,11.976a1.516,1.516,0,0,0-.12.128.487.487,0,0,0-.062.543.527.527,0,0,0,.526.294M10.7,9.871a1.9,1.9,0,1,0,1.9,1.893,1.9,1.9,0,0,0-1.9-1.893M6.534,8.13A1.9,1.9,0,1,0,4.653,6.185,1.907,1.907,0,0,0,6.534,8.13" transform="translate(166.377 253.63)" fill="#315568"/>
    <path id="Path_223" data-name="Path 223" d="M140.843,156.872a.855.855,0,0,1-.855-.861.864.864,0,0,1,1.728,0,.86.86,0,0,1-.873.863" transform="translate(36.226 109.384)" fill="#315568"/>
    <path id="Path_224" data-name="Path 224" d="M81.757,76.5a.855.855,0,0,1,.864.852.864.864,0,1,1-1.727,0,.86.86,0,0,1,.863-.855" transform="translate(91.168 182.508)" fill="#315568"/>
  </g>
</svg>
