<svg id="Group_220" data-name="Group 220" xmlns="http://www.w3.org/2000/svg" xmlns:xlink="http://www.w3.org/1999/xlink" width="21.961" height="23.316" viewBox="0 0 21.961 23.316">
  <defs>
    <clipPath id="clip-path">
      <rect id="Rectangle_25" data-name="Rectangle 25" width="21.961" height="23.316" fill="#315568"/>
    </clipPath>
  </defs>
  <g id="Group_13" data-name="Group 13" clip-path="url(#clip-path)">
    <path id="Path_21" data-name="Path 21" d="M19.489,21.95c.609,0,1.192,0,1.774,0a.682.682,0,0,1,.07,1.362c-.053,0-.106,0-.159,0H.776A.686.686,0,0,1,0,22.689a.671.671,0,0,1,.685-.737c.583-.005,1.167,0,1.785,0v-.32q0-10.393,0-20.785c0-.464.166-.725.527-.822A.874.874,0,0,1,3.223,0h15.5a.7.7,0,0,1,.762.766c0,.341,0,.683,0,1.024q0,9.926,0,19.852Zm-12.2-.01v-.282q0-2.47,0-4.94a.685.685,0,0,1,.774-.785q2.914,0,5.828,0a.685.685,0,0,1,.779.78q0,2.481,0,4.963v.258H18.1V1.377H3.852V21.94Zm1.374,0H13.29V17.314H8.664Z" transform="translate(0 0)" fill="#315568"/>
    <path id="Path_22" data-name="Path 22" d="M62.355,37.751c-.523,0-1.047,0-1.57,0a.711.711,0,0,1-.78-.775q0-1.593,0-3.185a.706.706,0,0,1,.769-.762q1.593,0,3.185,0a.706.706,0,0,1,.769.763q.005,1.593,0,3.186a.711.711,0,0,1-.781.774c-.531,0-1.062,0-1.593,0m-.973-1.387h1.965V34.412H61.383Z" transform="translate(-54.529 -30.014)" fill="#315568"/>
    <path id="Path_23" data-name="Path 23" d="M128.9,35.369c0-.516,0-1.032,0-1.547a.714.714,0,0,1,.79-.788q1.57,0,3.14,0a.716.716,0,0,1,.795.806q0,1.559,0,3.117a.717.717,0,0,1-.8.8h-3.117a.721.721,0,0,1-.806-.817c0-.523,0-1.047,0-1.57m3.346-.954h-1.963v1.957h1.963Z" transform="translate(-117.141 -30.018)" fill="#315568"/>
    <path id="Path_24" data-name="Path 24" d="M62.369,102.812c.538,0,1.077,0,1.615,0a.692.692,0,0,1,.742.737q.007,1.615,0,3.23a.682.682,0,0,1-.738.74q-1.627.01-3.253,0a.684.684,0,0,1-.731-.747q-.005-1.6,0-3.208a.7.7,0,0,1,.75-.753c.538,0,1.077,0,1.615,0m.975,1.384H61.388v1.946h1.956Z" transform="translate(-54.527 -93.432)" fill="#315568"/>
    <path id="Path_25" data-name="Path 25" d="M131.264,107.523c-.523,0-1.047,0-1.57,0a.707.707,0,0,1-.792-.8q0-1.558,0-3.117a.7.7,0,0,1,.781-.79h3.162a.7.7,0,0,1,.781.768q0,1.592,0,3.185a.69.69,0,0,1-.747.755c-.538.007-1.077,0-1.615,0m-.981-1.385h1.963v-1.95h-1.963Z" transform="translate(-117.141 -93.433)" fill="#315568"/>
  </g>
</svg>
