<svg id="Group_218" data-name="Group 218" xmlns="http://www.w3.org/2000/svg" xmlns:xlink="http://www.w3.org/1999/xlink" width="14.809" height="25.424" viewBox="0 0 14.809 25.424">
  <defs>
    <clipPath id="clip-path">
      <rect id="Rectangle_24" data-name="Rectangle 24" width="14.809" height="25.424" fill="#315568"/>
    </clipPath>
  </defs>
  <g id="Group_11" data-name="Group 11" clip-path="url(#clip-path)">
    <path id="Path_20" data-name="Path 20" d="M0,12.712Q0,7.3,0,1.889A1.713,1.713,0,0,1,.979.192,1.97,1.97,0,0,1,1.791.009Q7.4-.008,13,0a1.737,1.737,0,0,1,1.8,1.825c.008.811,0,1.622,0,2.433q0,9.619,0,19.238a1.747,1.747,0,0,1-.99,1.742,1.911,1.911,0,0,1-.789.175q-5.619.017-11.238.006A1.739,1.739,0,0,1,0,23.56q0-4.145,0-8.291V12.712M13.6,2.744H1.215V22.226H13.6ZM8.254,23.7a.85.85,0,1,0-.844.862.857.857,0,0,0,.844-.862M7.406,1.648c.571,0,1.141,0,1.712,0,.151,0,.3-.013.3-.2s-.15-.2-.3-.2q-1.712,0-3.424,0c-.155,0-.3.022-.3.208s.154.2.3.2c.571,0,1.141,0,1.712,0" transform="translate(0 0)" fill="#315568"/>
  </g>
</svg>
