<svg xmlns="http://www.w3.org/2000/svg" xmlns:xlink="http://www.w3.org/1999/xlink" width="77" height="77" viewBox="0 0 77 77">
  <defs>
    <filter id="Ellipse_23" x="0" y="0" width="77" height="77" filterUnits="userSpaceOnUse">
      <feOffset dy="3" input="SourceAlpha"/>
      <feGaussianBlur stdDeviation="2" result="blur"/>
      <feFlood flood-opacity="0.255"/>
      <feComposite operator="in" in2="blur"/>
      <feComposite in="SourceGraphic"/>
    </filter>
  </defs>
  <g id="Group_183" data-name="Group 183" transform="translate(-17 -15)">
    <g transform="matrix(1, 0, 0, 1, 17, 15)" filter="url(#Ellipse_23)">
      <g id="Ellipse_23-2" data-name="Ellipse 23" transform="translate(6 3)" fill="#f2f2f2" stroke="#234e68" stroke-width="1">
        <circle cx="32.5" cy="32.5" r="32.5" stroke="none"/>
        <circle cx="32.5" cy="32.5" r="32" fill="none"/>
      </g>
    </g>
    <g id="Icon_feather-settings" data-name="Icon feather-settings" transform="translate(37.5 32.5)">
      <path id="Path_416" data-name="Path 416" d="M22.5,18A4.5,4.5,0,1,1,18,13.5,4.5,4.5,0,0,1,22.5,18Z" fill="none" stroke="#234f68" stroke-linecap="round" stroke-linejoin="round" stroke-width="2"/>
      <path id="Path_417" data-name="Path 417" d="M29.1,22.5a2.475,2.475,0,0,0,.495,2.73l.09.09a3,3,0,1,1-4.245,4.245l-.09-.09a2.5,2.5,0,0,0-4.23,1.77V31.5a3,3,0,1,1-6,0v-.135A2.475,2.475,0,0,0,13.5,29.1a2.475,2.475,0,0,0-2.73.495l-.09.09A3,3,0,1,1,6.435,25.44l.09-.09a2.5,2.5,0,0,0-1.77-4.23H4.5a3,3,0,1,1,0-6h.135A2.475,2.475,0,0,0,6.9,13.5a2.475,2.475,0,0,0-.5-2.73l-.09-.09A3,3,0,1,1,10.56,6.435l.09.09a2.475,2.475,0,0,0,2.73.495h.12A2.475,2.475,0,0,0,15,4.755V4.5a3,3,0,0,1,6,0v.135a2.5,2.5,0,0,0,4.23,1.77l.09-.09a3,3,0,1,1,4.245,4.245l-.09.09a2.475,2.475,0,0,0-.5,2.73v.12A2.475,2.475,0,0,0,31.245,15H31.5a3,3,0,0,1,0,6h-.135A2.475,2.475,0,0,0,29.1,22.5Z" fill="none" stroke="#234f68" stroke-linecap="round" stroke-linejoin="round" stroke-width="2"/>
    </g>
  </g>
</svg>
