<svg id="Group_1" data-name="Group 1" xmlns="http://www.w3.org/2000/svg" width="171.328" height="44.362" viewBox="0 0 171.328 44.362">
  <path id="Path_387" data-name="Path 387" d="M3398.588,2959.23c1.258-.129,2.3-.207,2.108,1.672-.116,1.11-.333,1.6-1.489,1.426a3.261,3.261,0,0,0-1.017,0c-1.386.232-1.743-.291-1.8-1.7C3396.315,2958.582,3397.681,2959.372,3398.588,2959.23Z" transform="translate(-3253.217 -2950.245)" fill="#143c55"/>
  <path id="Path_388" data-name="Path 388" d="M3225.644,2971.156a11.474,11.474,0,0,0-14.7-5.268c-1.6.692-2.267,2.161-1.571,3.542.381.755.814,1.315,1.785.563a3.2,3.2,0,0,1,2.372-.845c-2.024,3.333-3.963,6.53-6.111,10.065-.12-.622-.144-.851-.21-1.069-.15-.508.3-1.239-.531-1.493a2.172,2.172,0,0,0-2.194.467,2.577,2.577,0,0,0-.772,2.267c.514,5.34,5.66,10.132,11.122,10.3a11.22,11.22,0,0,0,10.536-5.724A12.187,12.187,0,0,0,3225.644,2971.156Zm-6.886,14.049c-3.127,1.433-6,.83-8.635-1.276-.7-.563-.92-1.01-.349-1.918q3.745-5.943,7.285-12.014c.524-.894.982-.969,1.834-.544,2.967,1.479,4.84,4.514,4.827,8.787A8.082,8.082,0,0,1,3218.758,2985.2Z" transform="translate(-3156.927 -2953.132)" fill="#143c55"/>
  <path id="Path_389" data-name="Path 389" d="M3399.459,2974.037v-2.445h-4.1v1.341c0,.071,0,.143,0,.22,0,.058,0,.115,0,.173v.711h.006q.054,5.338,0,10.676c-.03,2.645.514,5.381-1.317,7.857.466.05.7.09.929.1,4.334.12,4.487-.033,4.488-4.448q0-6.806,0-13.61C3399.46,2974.4,3399.46,2974.214,3399.459,2974.037Z" transform="translate(-3252.045 -2956.452)" fill="#143c55"/>
  <path id="Path_390" data-name="Path 390" d="M3433.8,2985.054c0-1.395.009-2.854.009-4.463-.1-2.317.318-5.177-.163-7.969a9.235,9.235,0,0,0-9.592-7.389c-5.216.443-8.889,4.144-8.948,9.1-.049,4.052-.009,8.105-.009,12.157v.205h-.014v2.953h4.354v-.882a3.678,3.678,0,0,0,.013-.374c-.045-4.638-.029-9.277-.018-13.915.008-3.188,2.038-5.5,4.838-5.557,2.929-.054,5.182,2.343,5.192,5.553.012,4,0,8.007,0,12.011,0,.4,0,.757.006,1.066v2.1h4.329v-4.6Z" transform="translate(-3262.559 -2953.26)" fill="#143c55"/>
  <path id="Path_391" data-name="Path 391" d="M3364.91,2978.893a22.591,22.591,0,0,0-.263-5.1,10.426,10.426,0,0,0-9.789-8.592c-4.414-.271-8.073,2.44-9.644,7.265a18.562,18.562,0,0,0-.235,10.245,8.625,8.625,0,0,0,3.976,5.582c3.956,2.366,7.949,1.88,11.962-1.519.491,5-.55,6.439-5.3,7.414a1.991,1.991,0,0,0-.324.092v3.308a1.147,1.147,0,0,0,.272.023c4.264-.13,8.36-2.171,9.095-6.884C3365.269,2986.8,3364.812,2982.838,3364.91,2978.893Zm-5.953,5.281c-3.114,3.139-7.81,2.4-9.5-1.646a12.3,12.3,0,0,1,.613-11.127c1.654-2.971,6.173-3.322,8.464-.789,1.886,2.088,2.368,4.638,2.47,7.417C3360.844,2980.188,3360.69,2982.427,3358.957,2984.174Z" transform="translate(-3227.224 -2953.248)" fill="#143c55"/>
  <path id="Path_392" data-name="Path 392" d="M3319.98,2988.45c-.037-4.638.031-9.278-.03-13.916a9.41,9.41,0,1,0-18.818.182q-.009,5.86,0,11.719v3.225h4.442v-2.565h.006c0-.172-.005-.344-.006-.517v-.328h0c-.007-1.728.006-3.458.006-5.187,0-2.391-.025-4.785.008-7.177a4.844,4.844,0,0,1,3.327-4.694,5.066,5.066,0,0,1,6.58,5.019c.052,4.052.012,8.1.012,12.158,0,.368,0,.694,0,.985h0v2.307h4.458v-.893C3319.977,2988.67,3319.981,2988.565,3319.98,2988.45Z" transform="translate(-3205.615 -2953.253)" fill="#143c55"/>
  <path id="Path_393" data-name="Path 393" d="M3177.008,2988.45c-.036-4.638.033-9.278-.028-13.916a9.41,9.41,0,1,0-18.819.182q-.01,5.86,0,11.719v3.225h4.442v-2.565h.006c0-.172-.005-.344-.006-.517v-.328h0c-.007-1.728.006-3.458.006-5.187,0-2.391-.026-4.785.007-7.177a4.842,4.842,0,0,1,3.327-4.694,5.066,5.066,0,0,1,6.579,5.019c.053,4.052.012,8.1.012,12.158,0,.368,0,.694,0,.985h0v2.307H3177v-.893A2.938,2.938,0,0,0,3177.008,2988.45Z" transform="translate(-3134.171 -2953.253)" fill="#143c55"/>
  <path id="Path_394" data-name="Path 394" d="M3110.214,2966.4c.037,4.638-.031,9.277.029,13.915a9.41,9.41,0,1,0,18.819-.183q.01-5.859,0-11.717v-3.226h-4.443v2.566h-.005c0,.172.005.345.005.517v.327h0c.006,1.729-.007,3.459-.007,5.188,0,2.392.025,4.785-.008,7.177a4.844,4.844,0,0,1-3.327,4.694,5.066,5.066,0,0,1-6.579-5.02c-.054-4.052-.013-8.1-.013-12.157,0-.369,0-.694-.005-.985h0v-2.308h-4.458v.894A3.06,3.06,0,0,0,3110.214,2966.4Z" transform="translate(-3110.213 -2953.253)" fill="#143c55"/>
  <path id="Path_395" data-name="Path 395" d="M3274.24,2988.445v-.622h-.01c-.073-5.535.241-11.072.018-16.609a5.317,5.317,0,0,0-3.789-5.052,14.494,14.494,0,0,0-8.38-.6c-3.067.679-3.07.675-2.837,3.852a1.746,1.746,0,0,0,.123.347c.842-.2,1.695-.388,2.542-.6a10.607,10.607,0,0,1,6.084-.016,3.271,3.271,0,0,1,2.343,3.75c-.217,1.718-1.478,1.95-2.866,2.125a68.783,68.783,0,0,0-7.118,1.052c-3.958.927-6.014,3.959-5.538,7.763.446,3.566,3.38,5.909,7.339,6.005,2.852.068,5.623-.1,8.3-1.893v1.721h3.789v-.711c0-.059.007-.119.005-.185C3274.243,2988.663,3274.241,2988.555,3274.24,2988.445Zm-12.384-2.238a3.625,3.625,0,0,1-2.909-3.265,3.474,3.474,0,0,1,2.68-3.566,9.676,9.676,0,0,1,1.579-.336c1.406-.2,2.815-.374,3.8-.5,1.456.052,2.65-.083,3.156,1.022a3.57,3.57,0,0,1-.347,3.608A8.543,8.543,0,0,1,3261.855,2986.208Z" transform="translate(-3182.437 -2953.262)" fill="#143c55"/>
  <path id="Path_396" data-name="Path 396" d="M3225.988,2958.039s-.668-.143-.686-1.147a2.444,2.444,0,0,1,3.919-2.172c.621.636,4.267,5.484,4.267,5.484A15.067,15.067,0,0,0,3225.988,2958.039Z" transform="translate(-3167.723 -2947.758)" fill="#143c55"/>
  <path id="Path_397" data-name="Path 397" d="M3244.164,2958.01s0-13.588,0-14.13a2.578,2.578,0,0,0-2.576-2.55,2.686,2.686,0,0,0-2.049,1.177c-.057.239-.393.843.867,1.333C3242.054,2944.565,3244.138,2956.861,3244.164,2958.01Z" transform="translate(-3174.799 -2941.33)" fill="#143c55"/>
  <path id="Path_398" data-name="Path 398" d="M3232.025,2948.807s-.538-.362-.029-1.059a2.417,2.417,0,0,1,2.271-1.321,2.309,2.309,0,0,1,2.261,1.752l3.3,11.388s-4.428-8-5.381-8.907A9.733,9.733,0,0,0,3232.025,2948.807Z" transform="translate(-3170.96 -2943.876)" fill="#143c55"/>
</svg>
