<svg xmlns="http://www.w3.org/2000/svg" xmlns:xlink="http://www.w3.org/1999/xlink" width="25" height="25" viewBox="0 0 25 25">
  <defs>
    <clipPath id="clip-path">
      <rect id="Rectangle_137" data-name="Rectangle 137" width="25" height="25" transform="translate(0 -0.441)" fill="#fff"/>
    </clipPath>
  </defs>
  <g id="Group_212" data-name="Group 212" transform="translate(-0.004 0.437)">
    <g id="Group_152" data-name="Group 152" transform="translate(0.004 0.004)" clip-path="url(#clip-path)">
      <path id="Path_220" data-name="Path 220" d="M11.739,24.614q-4.7,0-9.4,0a2.161,2.161,0,0,1-2.1-1.28,2.414,2.414,0,0,1-.227-.991Q-.01,15.661.005,8.981A2.207,2.207,0,0,1,2.184,6.73c.576-.023,1.153,0,1.73-.015a1.033,1.033,0,0,0,.47-.129Q9.7,3.5,15.017.4a2.173,2.173,0,0,1,2.54.024,2.823,2.823,0,0,1,.747.857c1.018,1.738,2.011,3.491,3,5.243a.481.481,0,0,0,.391.26,2.148,2.148,0,0,1,1.758,1.9c.045,1.023.032,2.049.044,3.073,0,.128.009.257,0,.384a.343.343,0,0,0,.223.384,1.578,1.578,0,0,1,.888,1.46q.018,1.682,0,3.364a1.606,1.606,0,0,1-.932,1.483.273.273,0,0,0-.18.287q.009,1.562,0,3.124a2.346,2.346,0,0,1-.48,1.5,2.251,2.251,0,0,1-1.861.873q-4.71,0-9.42,0m10.62-12.305c.006-.091.013-.154.013-.217,0-1.01,0-2.019,0-3.028a1.121,1.121,0,0,0-1.242-1.227H2.381A1.145,1.145,0,0,0,1.115,9.1q0,6.562,0,13.123A1.157,1.157,0,0,0,2.4,23.5q9.35,0,18.7,0a1.181,1.181,0,0,0,1.281-1.279c-.022-.977,0-1.955-.006-2.932,0-.084-.008-.169-.013-.267H22.07c-.961,0-1.923.007-2.884,0a3.951,3.951,0,0,1-.882-.087,3.216,3.216,0,0,1-2.515-2.409,3.357,3.357,0,0,1,3.253-4.217c1.1,0,2.193,0,3.317,0m-1.505,5.578V17.9h1.9c.554,0,.751-.2.751-.747q0-1.489,0-2.978c0-.541-.212-.75-.756-.751-1.185,0-2.369,0-3.554,0a2.778,2.778,0,0,0-.62.053,2.207,2.207,0,0,0-1.778,2.249,2.184,2.184,0,0,0,2.116,2.157c.647.025,1.3,0,1.945,0M17.236,1.681a1.077,1.077,0,0,0-1.566-.364Q11.15,3.945,6.634,6.578c-.051.03-.1.067-.208.143h.3c.537,0,1.074.009,1.61-.006a1.033,1.033,0,0,0,.471-.125Q12.927,4.2,17.038,1.8c.067-.039.133-.082.2-.124m1.127,1.932-.558-.961L10.911,6.668c.65.053,1.28.058,1.909.048a.823.823,0,0,0,.382-.1c1.115-.641,2.224-1.291,3.336-1.938l1.826-1.063M20.13,6.708,18.918,4.586,15.341,6.668l.015.04Z" transform="translate(-0.006 -0.007)" fill="#fff"/>
      <path id="Path_221" data-name="Path 221" d="M187.32,151.383a1.112,1.112,0,1,1-1.115,1.113,1.117,1.117,0,0,1,1.115-1.113" transform="translate(-168.309 -136.835)" fill="#fff"/>
    </g>
  </g>
</svg>
