<svg xmlns="http://www.w3.org/2000/svg" width="57.244" height="59.74" viewBox="0 0 57.244 59.74">
  <g id="Group_211" data-name="Group 211" transform="translate(-166.378 -253.63)">
    <path id="Path_222" data-name="Path 222" d="M42.293,54.943c-1.18-.163-2.873-.373-4.557-.643a2.211,2.211,0,0,0-2.065.634c-1.218,1.2-2.41,2.436-3.723,3.525a5.083,5.083,0,0,1-7.1-.349c-.94-.9-1.945-1.748-2.792-2.73a3.093,3.093,0,0,0-3.286-.994,40.152,40.152,0,0,1-4.147.569,5.066,5.066,0,0,1-5.582-4.177c-.321-1.536-.576-3.087-.818-4.638a2.284,2.284,0,0,0-1.307-1.853c-1.319-.656-2.61-1.367-3.907-2.066A5.221,5.221,0,0,1,.635,34.956c.618-1.294,1.224-2.6,1.894-3.863a2.382,2.382,0,0,0,.012-2.424C1.877,27.42,1.283,26.135.667,24.861A5.239,5.239,0,0,1,3.041,17.5c1.3-.7,2.59-1.407,3.907-2.066a2.249,2.249,0,0,0,1.273-1.813c.242-1.512.49-3.024.8-4.523a5.228,5.228,0,0,1,6.285-4.276c1.472.245,2.953.439,4.431.652a2.026,2.026,0,0,0,1.792-.631c1.238-1.207,2.438-2.463,3.765-3.565a5.082,5.082,0,0,1,7.1.347c.926.887,1.919,1.719,2.749,2.689a3.17,3.17,0,0,0,3.385,1.03c1.384-.278,2.8-.412,4.2-.567a5.106,5.106,0,0,1,5.482,4.243c.28,1.525.564,3.05.8,4.581a2.286,2.286,0,0,0,1.312,1.849c1.336.666,2.648,1.379,3.959,2.093a5.2,5.2,0,0,1,2.34,7.186c-.639,1.349-1.288,2.693-1.968,4.021a2.259,2.259,0,0,0-.007,2.216c.663,1.293,1.291,2.6,1.924,3.913A5.232,5.232,0,0,1,54.2,42.238c-1.3.7-2.59,1.406-3.907,2.066a2.264,2.264,0,0,0-1.273,1.814c-.277,1.662-.523,3.336-.924,4.97-.62,2.527-2.712,4-5.8,3.855M17.465,42.951c.438.024.868-.357,1.288-.778Q29.835,31.08,40.921,19.993a5,5,0,0,0,.4-.426,1.613,1.613,0,0,0,.206-1.8,1.637,1.637,0,0,0-1.534-.97,2.022,2.022,0,0,0-1.5.772Q27.409,28.66,16.323,39.747a5.032,5.032,0,0,0-.4.426,1.616,1.616,0,0,0-.206,1.8,1.749,1.749,0,0,0,1.746.976M35.51,32.762A6.307,6.307,0,1,0,41.8,39.045a6.3,6.3,0,0,0-6.295-6.283m-13.826-5.78a6.309,6.309,0,1,0-6.242-6.454,6.328,6.328,0,0,0,6.242,6.454" transform="translate(166.377 253.63)" fill="#315568"/>
    <path id="Path_223" data-name="Path 223" d="M142.825,160.869a2.837,2.837,0,0,1-2.837-2.858,2.868,2.868,0,0,1,5.735-.007,2.853,2.853,0,0,1-2.9,2.865" transform="translate(59.035 134.662)" fill="#315568"/>
    <path id="Path_224" data-name="Path 224" d="M83.759,76.5a2.837,2.837,0,0,1,2.867,2.827,2.866,2.866,0,1,1-5.732.012A2.856,2.856,0,0,1,83.759,76.5" transform="translate(104.348 194.972)" fill="#315568"/>
  </g>
</svg>
