<svg xmlns="http://www.w3.org/2000/svg" width="22.93" height="23.929" viewBox="0 0 22.93 23.929">
  <g id="Group_160" data-name="Group 160" transform="translate(-1843.979 -977.397)">
    <path id="Path_222" data-name="Path 222" d="M16.941,22.008c-.473-.065-1.151-.15-1.825-.257a.886.886,0,0,0-.827.254c-.488.481-.965.976-1.491,1.412a2.036,2.036,0,0,1-2.844-.14c-.377-.361-.779-.7-1.118-1.093a1.239,1.239,0,0,0-1.316-.4,16.084,16.084,0,0,1-1.661.228A2.029,2.029,0,0,1,3.622,20.34c-.129-.615-.231-1.237-.328-1.858a.915.915,0,0,0-.523-.742c-.528-.263-1.046-.548-1.565-.828A2.091,2.091,0,0,1,.254,14c.248-.518.49-1.04.758-1.547a.954.954,0,0,0,0-.971c-.265-.5-.5-1.015-.75-1.525a2.1,2.1,0,0,1,.951-2.947c.52-.279,1.038-.564,1.565-.828a.9.9,0,0,0,.51-.726c.1-.606.2-1.211.32-1.812A2.094,2.094,0,0,1,6.132,1.933c.59.1,1.183.176,1.775.261a.812.812,0,0,0,.718-.253c.5-.483.977-.987,1.508-1.428a2.036,2.036,0,0,1,2.844.139c.371.355.769.689,1.1,1.077a1.27,1.27,0,0,0,1.356.413c.554-.111,1.121-.165,1.684-.227a2.045,2.045,0,0,1,2.2,1.7c.112.611.226,1.222.322,1.835a.916.916,0,0,0,.525.741c.535.267,1.061.553,1.586.838a2.085,2.085,0,0,1,.937,2.878c-.256.54-.516,1.079-.788,1.611a.9.9,0,0,0,0,.888c.266.518.517,1.043.771,1.567a2.1,2.1,0,0,1-.952,2.946c-.52.279-1.038.563-1.565.828a.907.907,0,0,0-.51.726c-.111.666-.209,1.336-.37,1.991a2.067,2.067,0,0,1-2.325,1.544M7,17.2c.175.01.347-.143.516-.312q4.439-4.443,8.88-8.884a2,2,0,0,0,.159-.171.646.646,0,0,0,.083-.722.656.656,0,0,0-.615-.388.81.81,0,0,0-.6.309q-4.439,4.443-8.88,8.884a2.016,2.016,0,0,0-.159.171.647.647,0,0,0-.083.722A.7.7,0,0,0,7,17.2m7.228-4.081a2.526,2.526,0,1,0,2.521,2.517,2.524,2.524,0,0,0-2.521-2.517M8.686,10.808a2.527,2.527,0,1,0-2.5-2.585,2.535,2.535,0,0,0,2.5,2.585" transform="translate(1843.979 977.397)" fill="#fff"/>
    <path id="Path_223" data-name="Path 223" d="M141.124,157.439a1.137,1.137,0,0,1-1.137-1.145,1.149,1.149,0,0,1,2.3,0,1.143,1.143,0,0,1-1.161,1.148" transform="translate(1717.068 836.742)" fill="#fff"/>
    <path id="Path_224" data-name="Path 224" d="M82.042,76.5a1.136,1.136,0,0,1,1.148,1.132,1.148,1.148,0,1,1-2.3,0A1.144,1.144,0,0,1,82.042,76.5" transform="translate(1770.642 908.046)" fill="#fff"/>
  </g>
</svg>
