<svg xmlns="http://www.w3.org/2000/svg" xmlns:xlink="http://www.w3.org/1999/xlink" width="23.338" height="20.727" viewBox="0 0 23.338 20.727">
  <defs>
    <clipPath id="clip-path">
      <rect id="Rectangle_13" data-name="Rectangle 13" width="19.369" height="13.393" fill="#0a303e"/>
    </clipPath>
  </defs>
  <g id="Group_1" data-name="Group 1" transform="matrix(0.891, -0.454, 0.454, 0.891, 0, 8.793)">
    <g id="Group_8" data-name="Group 8" clip-path="url(#clip-path)">
      <path id="Path_136" data-name="Path 136" d="M18.315,2.579c.244,0,.475,0,.706,0s.346.106.347.348q0,1.714,0,3.427a.3.3,0,0,1-.33.348,1.287,1.287,0,0,0-.02,2.572.323.323,0,0,1,.343.368q0,1.683,0,3.366c0,.275-.113.384-.383.384H.4c-.287,0-.4-.106-.4-.393q0-1.663,0-3.325c0-.282.1-.386.373-.4A1.269,1.269,0,0,0,1.581,8.049,1.284,1.284,0,0,0,.407,6.705c-.31-.027-.38-.1-.38-.4q0-1.663,0-3.325c0-.286.062-.357.343-.4Q3.639,2.088,6.909,1.6,10.1,1.117,13.286.633,15.368.32,17.452.018c.39-.057.475.017.529.411.092.672.194,1.343.293,2.014a1.083,1.083,0,0,0,.041.137M.616,12.82H13.985c0-.259-.006-.5,0-.746a.292.292,0,0,1,.286-.309.281.281,0,0,1,.3.271,1.8,1.8,0,0,1,.008.244c0,.18,0,.361,0,.54h4.2a.467.467,0,0,0,.014-.072c0-.925,0-1.849,0-2.774,0-.113-.045-.146-.147-.172A1.809,1.809,0,0,1,17.245,7.99a1.85,1.85,0,0,1,1.4-1.8c.15-.038.176-.1.175-.234,0-.87,0-1.74,0-2.611,0-.059-.007-.119-.012-.18H14.592c0,.236,0,.46,0,.683,0,.238-.1.364-.283.37-.2.006-.3-.111-.3-.371,0-.222,0-.445,0-.673H.615V6.158c.05.012.09.02.129.031A1.876,1.876,0,0,1,2.185,8.01,1.858,1.858,0,0,1,.742,9.8C.6,9.838.6,9.918.6,10.024q0,1.305,0,2.611c0,.059.007.119.011.185M12.991,1.271,4.417,2.554l0,.023h13.3L17.431.617l-3.866.572c.041.273.083.513.11.755a.268.268,0,0,1-.19.319.264.264,0,0,1-.333-.123.777.777,0,0,1-.067-.253c-.034-.2-.062-.4-.095-.618" transform="translate(0 -0.001)" fill="#0a303e"/>
      <path id="Path_137" data-name="Path 137" d="M45.726,83.9H42.362a.984.984,0,0,1-.2-.007.283.283,0,0,1-.254-.3.27.27,0,0,1,.245-.28,1.151,1.151,0,0,1,.2-.013h6.768c.034,0,.068,0,.1,0,.221.012.345.117.347.293s-.134.3-.358.3q-1.743,0-3.486,0" transform="translate(-38.487 -76.509)" fill="#0a303e"/>
      <path id="Path_138" data-name="Path 138" d="M45.7,128.315H42.4c-.054,0-.109,0-.163,0-.231-.01-.36-.122-.355-.305s.14-.29.37-.29q3.455,0,6.911,0c.245,0,.384.109.386.294s-.131.3-.38.3q-1.733,0-3.465,0" transform="translate(-38.466 -117.3)" fill="#0a303e"/>
      <path id="Path_139" data-name="Path 139" d="M45.751,105.618h3.382a1.809,1.809,0,0,1,.183,0,.275.275,0,0,1,.267.28.283.283,0,0,1-.275.293c-.047,0-.095,0-.143,0H42.341a1.128,1.128,0,0,1-.163,0,.287.287,0,0,1,.007-.571,1.632,1.632,0,0,1,.183,0h3.382" transform="translate(-38.503 -97.001)" fill="#0a303e"/>
      <path id="Path_140" data-name="Path 140" d="M43.964,61.16h1.669c.25,0,.369.089.371.274s-.126.3-.377.3q-1.7,0-3.4,0c-.219,0-.349-.112-.345-.285s.138-.281.35-.285h1.73" transform="translate(-38.467 -56.171)" fill="#0a303e"/>
      <path id="Path_141" data-name="Path 141" d="M172.015,63.86c0,.285,0,.571,0,.856,0,.25-.112.375-.308.369s-.286-.134-.287-.37q0-.856,0-1.713c0-.232.108-.364.29-.369s.3.121.306.37c0,.285,0,.571,0,.856" transform="translate(-157.434 -57.525)" fill="#0a303e"/>
      <path id="Path_142" data-name="Path 142" d="M171.417,104.613c0-.286,0-.571,0-.856,0-.226.115-.368.291-.373s.3.134.3.358q.006.877,0,1.754c0,.216-.12.349-.29.353s-.3-.135-.3-.359c0-.292,0-.584,0-.877" transform="translate(-157.433 -94.95)" fill="#0a303e"/>
    </g>
  </g>
</svg>
